<svg xmlns="http://www.w3.org/2000/svg" viewBox="0 0 64 64" role="img" aria-label="이득백과">
  <rect width="64" height="64" rx="14" fill="#0f766e" />
  <path
    d="M16 18c9 0 13 2.1 16 4.3c3-2.2 7-4.3 16-4.3c2.5 0 4.8.3 6.5.8V49c-1.9-.6-4.2-1-6.8-1
           c-9 0-13 2.1-15.7 4.2c-2.7-2.1-6.7-4.2-15.7-4.2c-2.6 0-4.9.4-6.8 1V18.8c1.7-.5 4-.8 6.5-.8Z"
    fill="#fff"
    opacity="0.92"
  />
  <path d="M32 23v26" stroke="#0f766e" stroke-width="2" opacity="0.25" />
  <circle cx="46.5" cy="40.5" r="8.2" fill="#0f766e" opacity="0.18" />
  <path
    d="M42.2 40.7l2.6 2.7l6.6-7"
    fill="none"
    stroke="#0f766e"
    stroke-width="3"
    stroke-linecap="round"
    stroke-linejoin="round"
  />
</svg>
